<svg width="16" height="16" viewBox="0 0 16 16" fill="none" xmlns="http://www.w3.org/2000/svg">
<g id="fa6-solid:thumbs-up">
<path id="Vector" d="M9.79375 1.02812C10.6062 1.19062 11.1344 1.98125 10.9719 2.79375L10.9 3.15C10.7344 3.98437 10.4281 4.77812 10 5.5H14.5C15.3281 5.5 16 6.17187 16 7C16 7.57812 15.6719 8.08125 15.1906 8.33125C15.5312 8.60625 15.75 9.02812 15.75 9.5C15.75 10.2312 15.225 10.8406 14.5344 10.9719C14.6719 11.2 14.75 11.4656 14.75 11.75C14.75 12.4156 14.3156 12.9812 13.7156 13.175C13.7375 13.2781 13.75 13.3875 13.75 13.5C13.75 14.3281 13.0781 15 12.25 15H9.20312C8.60938 15 8.03125 14.825 7.5375 14.4969L6.33437 13.6937C5.5 13.1375 5 12.2 5 11.1969V7.72187C5 6.80937 5.41563 5.95 6.125 5.37812L6.35625 5.19375C7.18437 4.53125 7.75 3.6 7.95625 2.5625L8.02812 2.20625C8.19063 1.39375 8.98125 0.865624 9.79375 1.02812ZM1 6H3C3.55312 6 4 6.44687 4 7V14C4 14.5531 3.55312 15 3 15H1C0.446875 15 0 14.5531 0 14V7C0 6.44687 0.446875 6 1 6Z" fill="white"/>
</g>
</svg>
